<svg xmlns:xlink="http://www.w3.org/1999/xlink" width="36.452ex" height="9.509ex" style="font-size: 15px; vertical-align: -7.005ex;" viewBox="0 -1078.4 15694.6 4094.3" role="img" focusable="false" xmlns="http://www.w3.org/2000/svg">
<defs>
<path stroke-width="1" id="E1-MJAMS-45" d="M12 666Q12 675 24 683H582Q590 680 593 672V588Q593 514 591 502T575 490Q567 490 563 495T555 517Q552 556 517 590Q486 623 445 634T340 648H282Q266 636 264 620T260 492V370H277Q329 375 358 391T404 439Q420 480 420 506Q420 529 436 529Q445 529 451 521Q455 517 455 361Q455 333 455 298T456 253Q456 217 453 207T437 197Q420 196 420 217Q420 240 406 270Q377 328 284 335H260V201Q261 174 261 134Q262 73 264 61T278 38Q281 36 282 35H331Q400 35 449 50Q571 93 602 179Q605 203 622 203Q629 203 634 197T640 183Q638 181 624 95T604 3L600 -1H24Q12 5 12 16Q12 35 51 35Q92 38 97 52Q102 60 102 341T97 632Q91 645 51 648Q12 648 12 666ZM137 341Q137 131 136 89T130 37Q129 36 129 35H235Q233 41 231 48L226 61V623L231 635L235 648H129Q132 641 133 638T135 603T137 517T137 341ZM557 603V648H504Q504 646 515 639Q527 634 542 619L557 603ZM420 317V397L406 383Q394 370 380 363L366 355Q373 350 382 346Q400 333 409 328L420 317ZM582 61L586 88Q585 88 582 83Q557 61 526 46L511 37L542 35H577Q577 36 578 39T580 49T582 61Z"></path>
<path stroke-width="1" id="E1-MJMAIN-5B" d="M118 -250V750H255V710H158V-210H255V-250H118Z"></path>
<path stroke-width="1" id="E1-MJMATHI-52" d="M230 637Q203 637 198 638T193 649Q193 676 204 682Q206 683 378 683Q550 682 564 680Q620 672 658 652T712 606T733 563T739 529Q739 484 710 445T643 385T576 351T538 338L545 333Q612 295 612 223Q612 212 607 162T602 80V71Q602 53 603 43T614 25T640 16Q668 16 686 38T712 85Q717 99 720 102T735 105Q755 105 755 93Q755 75 731 36Q693 -21 641 -21H632Q571 -21 531 4T487 82Q487 109 502 166T517 239Q517 290 474 313Q459 320 449 321T378 323H309L277 193Q244 61 244 59Q244 55 245 54T252 50T269 48T302 46H333Q339 38 339 37T336 19Q332 6 326 0H311Q275 2 180 2Q146 2 117 2T71 2T50 1Q33 1 33 10Q33 12 36 24Q41 43 46 45Q50 46 61 46H67Q94 46 127 49Q141 52 146 61Q149 65 218 339T287 628Q287 635 230 637ZM630 554Q630 586 609 608T523 636Q521 636 500 636T462 637H440Q393 637 386 627Q385 624 352 494T319 361Q319 360 388 360Q466 361 492 367Q556 377 592 426Q608 449 619 486T630 554Z"></path>
<path stroke-width="1" id="E1-MJMATHI-74" d="M26 385Q19 392 19 395Q19 399 22 411T27 425Q29 430 36 430T87 431H140L159 511Q162 522 166 540T173 566T179 586T187 603T197 615T211 624T229 626Q247 625 254 615T261 596Q261 589 252 549T232 470L222 433Q222 431 272 431H323Q330 424 330 420Q330 398 317 385H210L174 240Q135 80 135 68Q135 26 162 26Q197 26 230 60T283 144Q285 150 288 151T303 153H307Q322 153 322 145Q322 142 319 133Q314 117 301 95T267 48T216 6T155 -11Q125 -11 98 4T59 56Q57 64 57 83V101L92 241Q127 382 128 383Q128 385 77 385H26Z"></path>
<path stroke-width="1" id="E1-MJMAIN-5D" d="M22 710V750H159V-250H22V-210H119V710H22Z"></path>
<path stroke-width="1" id="E1-MJMAIN-5F" d="M0 -62V-25H499V-62H0Z"></path>
<path stroke-width="1" id="E1-MJMAIN-2212" d="M84 237T84 250T98 270H679Q694 262 694 250T679 230H98Q84 237 84 250Z"></path>
<path stroke-width="1" id="E1-MJMAIN-3D" d="M56 347Q56 360 70 367H707Q722 359 722 347Q722 336 708 328L390 327H72Q56 332 56 347ZM56 153Q56 168 72 173H708Q722 163 722 153Q722 140 707 133H70Q56 140 56 153Z"></path>
<path stroke-width="1" id="E1-MJSZ2-2211" d="M60 948Q63 950 665 950H1267L1325 815Q1384 677 1388 669H1348L1341 683Q1320 724 1285 761Q1235 809 1174 838T1033 881T882 898T699 902H574H543H251L259 891Q722 258 724 252Q725 250 724 246Q721 243 460 -56L196 -356Q196 -357 407 -357Q459 -357 548 -357T676 -358Q812 -358 896 -353T1063 -332T1204 -283T1307 -196Q1328 -170 1348 -124H1388Q1388 -125 1381 -145T1356 -210T1325 -294L1267 -449L666 -450Q64 -450 61 -448Q55 -446 55 -439Q55 -437 57 -433L590 177Q590 178 557 222T452 366T322 544L56 909L55 924Q55 945 60 948Z"></path>
<path stroke-width="1" id="E1-MJMATHI-78" d="M52 289Q59 331 106 386T222 442Q257 442 286 424T329 379Q371 442 430 442Q467 442 494 420T522 361Q522 332 508 314T481 292T458 288Q439 288 427 299T415 328Q415 374 465 391Q454 404 425 404Q412 404 406 402Q368 386 350 336Q290 115 290 78Q290 50 306 38T341 26Q378 26 414 59T463 140Q466 150 469 151T485 153H489Q504 153 504 145Q504 144 502 134Q486 77 440 33T333 -11Q263 -11 227 52Q186 -10 133 -10H127Q78 -10 57 16T35 71Q35 103 54 123T99 143Q142 143 142 101Q142 81 130 66T107 46T94 41L91 40Q91 39 97 36T113 29T132 26Q168 26 194 71Q203 87 217 139T245 247T261 313Q266 340 266 352Q266 380 251 392T217 404Q177 404 142 372T93 290Q91 281 88 280T72 278H58Q52 284 52 289Z"></path>
<path stroke-width="1" id="E1-MJMATHI-3C0" d="M132 -11Q98 -11 98 22V33L111 61Q186 219 220 334L228 358H196Q158 358 142 355T103 336Q92 329 81 318T62 297T53 285Q51 284 38 284Q19 284 19 294Q19 300 38 329T93 391T164 429Q171 431 389 431Q549 431 553 430Q573 423 573 402Q573 371 541 360Q535 358 472 358H408L405 341Q393 269 393 222Q393 170 402 129T421 65T431 37Q431 20 417 5T381 -10Q370 -10 363 -7T347 17T331 77Q330 86 330 121Q330 170 339 226T357 318T367 358H269L268 354Q268 351 249 275T206 114T175 17Q164 -11 132 -11Z"></path>
<path stroke-width="1" id="E1-MJMAIN-28" d="M94 250Q94 319 104 381T127 488T164 576T202 643T244 695T277 729T302 750H315H319Q333 750 333 741Q333 738 316 720T275 667T226 581T184 443T167 250T184 58T225 -81T274 -167T316 -220T333 -241Q333 -250 318 -250H315H302L274 -226Q180 -141 137 -14T94 250Z"></path>
<path stroke-width="1" id="E1-MJMAIN-29" d="M60 749L64 750Q69 750 74 750H86L114 726Q208 641 251 514T294 250Q294 182 284 119T261 12T224 -76T186 -143T145 -194T113 -227T90 -246Q87 -249 86 -250H74Q66 -250 63 -250T58 -247T55 -238Q56 -237 66 -225Q221 -64 221 250T66 725Q56 737 55 738Q55 746 60 749Z"></path>
<path stroke-width="1" id="E1-MJMATHI-71" d="M33 157Q33 258 109 349T280 441Q340 441 372 389Q373 390 377 395T388 406T404 418Q438 442 450 442Q454 442 457 439T460 434Q460 425 391 149Q320 -135 320 -139Q320 -147 365 -148H390Q396 -156 396 -157T393 -175Q389 -188 383 -194H370Q339 -192 262 -192Q234 -192 211 -192T174 -192T157 -193Q143 -193 143 -185Q143 -182 145 -170Q149 -154 152 -151T172 -148Q220 -148 230 -141Q238 -136 258 -53T279 32Q279 33 272 29Q224 -10 172 -10Q117 -10 75 30T33 157ZM352 326Q329 405 277 405Q242 405 210 374T160 293Q131 214 119 129Q119 126 119 118T118 106Q118 61 136 44T179 26Q233 26 290 98L298 109L352 326Z"></path>
<path stroke-width="1" id="E1-MJMAIN-2217" d="M229 286Q216 420 216 436Q216 454 240 464Q241 464 245 464T251 465Q263 464 273 456T283 436Q283 419 277 356T270 286L328 328Q384 369 389 372T399 375Q412 375 423 365T435 338Q435 325 425 315Q420 312 357 282T289 250L355 219L425 184Q434 175 434 161Q434 146 425 136T401 125Q393 125 383 131T328 171L270 213Q283 79 283 63Q283 53 276 44T250 35Q231 35 224 44T216 63Q216 80 222 143T229 213L171 171Q115 130 110 127Q106 124 100 124Q87 124 76 134T64 161Q64 166 64 169T67 175T72 181T81 188T94 195T113 204T138 215T170 230T210 250L74 315Q65 324 65 338Q65 353 74 363T98 374Q106 374 116 368T171 328L229 286Z"></path>
</defs>
<g stroke="currentColor" fill="currentColor" stroke-width="0" transform="matrix(1 0 0 -1 0 0)">
<g transform="translate(1140,0)">
<g transform="translate(42,0)">
 <use xlink:href="#E1-MJAMS-45" x="0" y="0"></use>
<g transform="translate(834,0)">
 <use xlink:href="#E1-MJMAIN-5B" x="0" y="0"></use>
<g transform="translate(278,0)">
 <use xlink:href="#E1-MJMATHI-52" x="0" y="0"></use>
 <use transform="scale(0.707)" xlink:href="#E1-MJMATHI-74" x="1074" y="-213"></use>
</g>
 <use xlink:href="#E1-MJMAIN-5D" x="1393" y="0"></use>
</g>
</g>
<g transform="translate(0,-705)">
 <use xlink:href="#E1-MJMAIN-2212" x="-85" y="0"></use>
<g transform="translate(240.26041409583036,0) scale(2.600468472238694,1)">
 <use xlink:href="#E1-MJMAIN-2212"></use>
</g>
 <use xlink:href="#E1-MJMAIN-2212" x="1811" y="0"></use>
</g>
</g>
<g transform="translate(0,-1254)">
<text font-family="monospace" stroke="none" transform="scale(50.74127551116547) matrix(1 0 0 -1 0 0)">在</text>
<g transform="translate(811,0)">
<text font-family="monospace" stroke="none" transform="scale(50.74127551116547) matrix(1 0 0 -1 0 0)">时</text>
</g>
<g transform="translate(1623,0)">
<text font-family="monospace" stroke="none" transform="scale(50.74127551116547) matrix(1 0 0 -1 0 0)">间</text>
</g>
<g transform="translate(2435,0)">
<text font-family="monospace" stroke="none" transform="scale(50.74127551116547) matrix(1 0 0 -1 0 0)">步</text>
</g>
 <use transform="scale(0.707)" xlink:href="#E1-MJMATHI-74" x="4592" y="0"></use>
<g transform="translate(3503,0)">
<text font-family="monospace" stroke="none" transform="scale(50.74127551116547) matrix(1 0 0 -1 0 0)">时</text>
</g>
<g transform="translate(0,-1218)">
<text font-family="monospace" stroke="none" transform="scale(50.74127551116547) matrix(1 0 0 -1 0 0)">所</text>
<g transform="translate(811,0)">
<text font-family="monospace" stroke="none" transform="scale(50.74127551116547) matrix(1 0 0 -1 0 0)">获</text>
</g>
<g transform="translate(1623,0)">
<text font-family="monospace" stroke="none" transform="scale(50.74127551116547) matrix(1 0 0 -1 0 0)">得</text>
</g>
<g transform="translate(2435,0)">
<text font-family="monospace" stroke="none" transform="scale(50.74127551116547) matrix(1 0 0 -1 0 0)">的</text>
</g>
<g transform="translate(3247,0)">
<text font-family="monospace" stroke="none" transform="scale(50.74127551116547) matrix(1 0 0 -1 0 0)">奖</text>
</g>
<g transform="translate(4059,0)">
<text font-family="monospace" stroke="none" transform="scale(50.74127551116547) matrix(1 0 0 -1 0 0)">赏</text>
</g>
</g>
</g>
 <use xlink:href="#E1-MJMAIN-3D" x="5148" y="0"></use>
<g transform="translate(6205,0)">
 <use xlink:href="#E1-MJSZ2-2211" x="0" y="0"></use>
 <use transform="scale(0.707)" xlink:href="#E1-MJMATHI-78" x="735" y="-1487"></use>
</g>
<g transform="translate(7816,0)">
<g transform="translate(967,0)">
<g transform="translate(42,0)">
 <use xlink:href="#E1-MJMATHI-3C0" x="0" y="0"></use>
 <use transform="scale(0.707)" xlink:href="#E1-MJMATHI-74" x="806" y="-213"></use>
<g transform="translate(1092,0)">
 <use xlink:href="#E1-MJMAIN-28" x="0" y="0"></use>
 <use xlink:href="#E1-MJMATHI-78" x="389" y="0"></use>
 <use xlink:href="#E1-MJMAIN-29" x="962" y="0"></use>
</g>
</g>
<g transform="translate(0,-705)">
 <use xlink:href="#E1-MJMAIN-2212" x="-85" y="0"></use>
<g transform="translate(248.84893868599428,0) scale(2.498829127976399,1)">
 <use xlink:href="#E1-MJMAIN-2212"></use>
</g>
 <use xlink:href="#E1-MJMAIN-2212" x="1749" y="0"></use>
</g>
</g>
<g transform="translate(0,-1254)">
<text font-family="monospace" stroke="none" transform="scale(50.74127551116547) matrix(1 0 0 -1 0 0)">在</text>
<g transform="translate(811,0)">
<text font-family="monospace" stroke="none" transform="scale(50.74127551116547) matrix(1 0 0 -1 0 0)">时</text>
</g>
<g transform="translate(1623,0)">
<text font-family="monospace" stroke="none" transform="scale(50.74127551116547) matrix(1 0 0 -1 0 0)">间</text>
</g>
 <use transform="scale(0.707)" xlink:href="#E1-MJMATHI-74" x="3444" y="0"></use>
<g transform="translate(2691,0)">
<text font-family="monospace" stroke="none" transform="scale(50.74127551116547) matrix(1 0 0 -1 0 0)">选</text>
</g>
<g transform="translate(3503,0)">
<text font-family="monospace" stroke="none" transform="scale(50.74127551116547) matrix(1 0 0 -1 0 0)">择</text>
</g>
<g transform="translate(0,-1218)">
<text font-family="monospace" stroke="none" transform="scale(50.74127551116547) matrix(1 0 0 -1 0 0)">动</text>
<g transform="translate(811,0)">
<text font-family="monospace" stroke="none" transform="scale(50.74127551116547) matrix(1 0 0 -1 0 0)">作</text>
</g>
 <use transform="scale(0.707)" xlink:href="#E1-MJMATHI-78" x="2296" y="0"></use>
<g transform="translate(2028,0)">
<text font-family="monospace" stroke="none" transform="scale(50.74127551116547) matrix(1 0 0 -1 0 0)">的</text>
</g>
<g transform="translate(2840,0)">
<text font-family="monospace" stroke="none" transform="scale(50.74127551116547) matrix(1 0 0 -1 0 0)">概</text>
</g>
<g transform="translate(3652,0)">
<text font-family="monospace" stroke="none" transform="scale(50.74127551116547) matrix(1 0 0 -1 0 0)">率</text>
</g>
</g>
</g>
</g>
<g transform="translate(12447,0)">
<g transform="translate(363,0)">
<g transform="translate(42,0)">
 <use xlink:href="#E1-MJMATHI-71" x="0" y="0"></use>
 <use transform="scale(0.707)" xlink:href="#E1-MJMAIN-2217" x="657" y="583"></use>
<g transform="translate(1085,0)">
 <use xlink:href="#E1-MJMAIN-28" x="0" y="0"></use>
 <use xlink:href="#E1-MJMATHI-78" x="389" y="0"></use>
 <use xlink:href="#E1-MJMAIN-29" x="962" y="0"></use>
</g>
</g>
<g transform="translate(0,-705)">
 <use xlink:href="#E1-MJMAIN-2212" x="-85" y="0"></use>
<g transform="translate(249.8826309836556,0) scale(2.4865960830336618,1)">
 <use xlink:href="#E1-MJMAIN-2212"></use>
</g>
 <use xlink:href="#E1-MJMAIN-2212" x="1742" y="0"></use>
</g>
</g>
<g transform="translate(0,-1254)">
<text font-family="monospace" stroke="none" transform="scale(50.74127551116547) matrix(1 0 0 -1 0 0)">动</text>
<g transform="translate(811,0)">
<text font-family="monospace" stroke="none" transform="scale(50.74127551116547) matrix(1 0 0 -1 0 0)">作</text>
</g>
 <use transform="scale(0.707)" xlink:href="#E1-MJMATHI-78" x="2296" y="0"></use>
<g transform="translate(2028,0)">
<text font-family="monospace" stroke="none" transform="scale(50.74127551116547) matrix(1 0 0 -1 0 0)">的</text>
</g>
<g transform="translate(0,-1218)">
<text font-family="monospace" stroke="none" transform="scale(50.74127551116547) matrix(1 0 0 -1 0 0)">期</text>
<g transform="translate(811,0)">
<text font-family="monospace" stroke="none" transform="scale(50.74127551116547) matrix(1 0 0 -1 0 0)">望</text>
</g>
<g transform="translate(1623,0)">
<text font-family="monospace" stroke="none" transform="scale(50.74127551116547) matrix(1 0 0 -1 0 0)">回</text>
</g>
<g transform="translate(2435,0)">
<text font-family="monospace" stroke="none" transform="scale(50.74127551116547) matrix(1 0 0 -1 0 0)">报</text>
</g>
</g>
</g>
</g>
</g>
</svg>